# xmcd
#
# Track frame offsets: 
#        150
#        16875
#        37881
#        54185
#        70236
#        90815
#        107145
#        127301
#        145442
#        161848
#        177824
#        199908
#        218131
#
# Disc length: 3115 seconds
#
# Revision: 0
# Processed by: cddbd v1.5.2PL0 Copyright (c) Steve Scherf et al.
# Submitted via: ExactAudioCopy v1.0b3
#
DISCID=b30c290d
DTITLE=Aleyce Simmonds - Believe
DYEAR=2013
DGENRE=Country
TTITLE0=Believe
TTITLE1=Built My World
TTITLE2=Stronger
TTITLE3=Joshua
TTITLE4=Stay Gone
TTITLE5=Name Without a Face
TTITLE6=Pieces Over You
TTITLE7=It Finds Us Anyway
TTITLE8=The Tree House Song (featuring Karlee Simmonds)
TTITLE9=My Life Drives Me To Drink
TTITLE10=Running For My Life
TTITLE11=Tonight
TTITLE12=Listen (Silent Track)
EXTD=
EXTT0=
EXTT1=
EXTT2=
EXTT3=
EXTT4=
EXTT5=
EXTT6=
EXTT7=
EXTT8=
EXTT9=
EXTT10=
EXTT11=
EXTT12=
PLAYORDER=
